<?xml version="1.0" encoding="UTF-8"?>
<svg preserveAspectRatio="xMidYMid slice" xmlns="http://www.w3.org/2000/svg" width="920px" height="565px" viewBox="0 0 158 97" fill="none">
  <g clip-path="url(#clip0_5_2029)">
    <path d="M100.922 74.0572C100.415 73.5148 99.81 73.0879 99.1164 72.7767C98.4228 72.4654 97.658 72.3143 96.8221 72.3143C95.9862 72.3143 95.2304 72.4654 94.5368 72.7767C93.8431 73.0879 93.2473 73.5148 92.7405 74.0572C92.2336 74.5997 91.8423 75.231 91.5578 75.9602C91.2732 76.6894 91.1398 77.4631 91.1398 78.2901C91.1398 79.1171 91.2821 79.8996 91.5578 80.6288C91.8423 81.3491 92.2336 81.9805 92.7405 82.5229C93.2473 83.0654 93.8431 83.4833 94.5368 83.7857C95.2304 84.088 95.9951 84.2481 96.8221 84.2481C97.6492 84.2481 98.4228 84.0969 99.1164 83.7857C99.81 83.4744 100.415 83.0565 100.922 82.5229C101.428 81.9894 101.82 81.358 102.104 80.6288C102.389 79.9085 102.522 79.126 102.522 78.2901C102.522 77.4542 102.38 76.6894 102.104 75.9602C101.82 75.231 101.428 74.5997 100.922 74.0572Z" fill="#003039"></path>
    <path d="M66.8898 44.2938C66.7031 44.8096 66.5074 45.3609 66.3118 45.9478C66.1162 46.5436 65.9205 47.1394 65.7338 47.7441C65.5382 48.3488 65.3514 48.9446 65.1558 49.5315C64.9601 50.1184 64.7645 50.6698 64.5778 51.1767H69.2019L66.8987 44.2938H66.8898Z" fill="#003039"></path>
    <path d="M33.4271 75.7913C33.2315 76.3871 33.0358 76.9828 32.8491 77.5787C32.6534 78.1833 32.4667 78.7791 32.2711 79.3661C32.0754 79.953 31.8798 80.5043 31.6931 81.0112H36.3172L34.014 74.1283C33.8184 74.6441 33.6316 75.1954 33.436 75.7824L33.4271 75.7913Z" fill="#003039"></path>
    <path d="M38.2024 22.845C38.7093 23.3785 39.3051 23.8054 39.9987 24.1077C40.6923 24.4101 41.4571 24.5701 42.2841 24.5701C43.1111 24.5701 43.8847 24.419 44.5784 24.1077C45.272 23.8054 45.8767 23.3785 46.3836 22.845C46.8904 22.3114 47.2817 21.6801 47.5663 20.9509C47.8508 20.2306 47.9842 19.448 47.9842 18.6121C47.9842 17.7762 47.8419 17.0115 47.5663 16.2823C47.2817 15.5531 46.8904 14.9217 46.3836 14.3793C45.8767 13.8368 45.272 13.41 44.5784 13.0987C43.8847 12.7875 43.12 12.6363 42.2841 12.6363C41.4482 12.6363 40.6923 12.7875 39.9987 13.0987C39.3051 13.41 38.7093 13.8368 38.2024 14.3793C37.6955 14.9217 37.3043 15.5531 37.0197 16.2823C36.7351 17.0115 36.6017 17.7851 36.6017 18.6121C36.6017 19.4391 36.744 20.2217 37.0197 20.9509C37.3043 21.6712 37.6955 22.3025 38.2024 22.845Z" fill="#003039"></path>
    <path d="M122.913 72.7411C122.708 72.4921 122.468 72.2787 122.193 72.1097C121.908 71.9408 121.597 71.8252 121.259 71.7807C120.974 71.7629 120.716 71.7452 120.467 71.7274C120.218 71.7096 119.952 71.7007 119.658 71.7007H117.577V77.2319H120.352C120.53 77.2319 120.69 77.2319 120.832 77.2141C120.974 77.2052 121.125 77.1874 121.294 77.1696C121.65 77.1251 121.961 77.0273 122.246 76.8584C122.531 76.6894 122.762 76.4849 122.957 76.2448C123.153 75.9958 123.295 75.7201 123.393 75.4178C123.491 75.1154 123.544 74.7953 123.544 74.4752C123.544 74.1728 123.491 73.8705 123.375 73.5681C123.269 73.2658 123.109 72.9901 122.913 72.7411Z" fill="#003039"></path>
    <path d="M154.828 59.669H104.461C103.002 59.669 101.82 58.4863 101.82 57.028V32.4578C101.82 30.9994 100.637 29.8167 99.1787 29.8167H63.9108C62.4524 29.8167 61.2697 28.634 61.2697 27.1756V2.64109C61.2697 1.18271 60.087 0 58.6375 0H2.64109C1.18271 0 0 1.18271 0 2.64109V97.0089H154.828C156.287 97.0089 157.469 95.8262 157.469 94.3678V62.3101C157.469 60.8518 156.287 59.6779 154.828 59.6779V59.669ZM77.1696 37.9268C77.1696 37.7311 77.2407 37.5622 77.3741 37.4466C77.5075 37.3221 77.6765 37.2687 77.881 37.2687H94.0832C94.2611 37.2687 94.4212 37.3221 94.5634 37.4377C94.7057 37.5444 94.7858 37.7133 94.8035 37.9356V41.6705C94.8035 41.8484 94.7413 42.0262 94.6168 42.1863C94.4923 42.3463 94.3145 42.4353 94.0832 42.4353H88.89V58.931C88.89 59.1088 88.8277 59.2778 88.6944 59.4201C88.561 59.5623 88.392 59.6424 88.1875 59.6424H83.7679C83.5989 59.6424 83.4389 59.5712 83.2877 59.4378C83.1365 59.3045 83.0654 59.1355 83.0654 58.931V42.4353H77.881C77.6765 42.4353 77.5075 42.373 77.3741 42.2396C77.2407 42.1063 77.1696 41.9195 77.1696 41.6705V37.9356V37.9268ZM55.9609 59.0288L64.142 37.8556C64.1509 37.7934 64.1865 37.7311 64.2398 37.66C64.2932 37.5888 64.3643 37.5266 64.4444 37.4643C64.5244 37.4021 64.6133 37.3576 64.7022 37.3221C64.7912 37.2865 64.8801 37.2687 64.9601 37.2687H68.8195C68.9884 37.2687 69.1396 37.3221 69.2552 37.4288C69.3797 37.5355 69.4686 37.6244 69.522 37.7044L69.8955 38.567L77.801 58.9576C77.881 59.1622 77.8632 59.3222 77.7565 59.4467C77.6498 59.5712 77.4542 59.6335 77.1874 59.6335H72.8656C72.6344 59.6335 72.4565 59.589 72.332 59.509C72.2076 59.4201 72.1097 59.2778 72.0386 59.0821C71.8341 58.5664 71.6384 58.0595 71.4517 57.5526C71.2561 57.0457 71.0693 56.5389 70.8826 56.0231H62.8882C62.7014 56.5389 62.5058 57.0457 62.3101 57.5526C62.1145 58.0595 61.9189 58.5664 61.7321 59.0821C61.5987 59.4556 61.3408 59.6424 60.9674 59.6424H56.5211C56.3343 59.6424 56.1743 59.589 56.0498 59.4912C55.9253 59.3934 55.8986 59.2422 55.9786 59.0377L55.9609 59.0288ZM31.1684 15.5709C31.4352 14.5927 31.8265 13.6768 32.3333 12.8142C32.8313 11.9516 33.436 11.1779 34.1296 10.4754C34.8321 9.77292 35.6058 9.16823 36.4595 8.67913C37.3132 8.18115 38.2291 7.79877 39.2073 7.5231C40.1855 7.24743 41.2081 7.10515 42.2752 7.10515C43.3423 7.10515 44.3472 7.23854 45.3342 7.5231C46.3213 7.79877 47.2373 8.18115 48.0909 8.67913C48.9446 9.17712 49.7272 9.77292 50.4297 10.4754C51.1322 11.1779 51.7369 11.9605 52.2349 12.8142C52.7329 13.6768 53.1152 14.5927 53.3909 15.5709C53.6666 16.549 53.8089 17.5717 53.8089 18.6388C53.8089 19.7059 53.6755 20.7285 53.3909 21.7067C53.1152 22.6849 52.724 23.6008 52.2349 24.4456C51.7369 25.2904 51.1322 26.0641 50.4297 26.7666C49.7272 27.4691 48.9446 28.0649 48.0909 28.5629C47.2373 29.0609 46.3213 29.4521 45.3342 29.7189C44.3472 29.9857 43.3334 30.128 42.2752 30.128C41.217 30.128 40.1855 29.9946 39.2073 29.7189C38.2291 29.4521 37.3132 29.0609 36.4595 28.5629C35.6058 28.056 34.8321 27.4602 34.1296 26.7666C33.4271 26.073 32.8313 25.2993 32.3333 24.4456C31.8265 23.6008 31.4441 22.6849 31.1684 21.7067C30.9016 20.7285 30.7593 19.7059 30.7593 18.6388C30.7593 17.5717 30.8927 16.549 31.1684 15.5709ZM50.1629 46.1613C50.3497 46.1613 50.5097 46.2057 50.6342 46.2946C50.7587 46.3836 50.821 46.5347 50.821 46.7482V50.0028C50.821 50.1451 50.7676 50.2785 50.652 50.4119C50.5453 50.5453 50.3852 50.6075 50.1718 50.6075H42.622V54.4669H52.7417C53.1953 54.4669 53.4176 54.6981 53.4176 55.1605V58.9488C53.4176 59.0466 53.3731 59.1355 53.2931 59.2155C53.2486 59.5001 53.0441 59.6335 52.6795 59.6335H37.4466C37.242 59.6335 37.082 59.5801 36.9664 59.4734C36.8419 59.3667 36.7885 59.2066 36.7885 58.9843V37.9623C36.7885 37.7489 36.8508 37.5799 36.9575 37.4554C37.0731 37.3309 37.2331 37.2687 37.4466 37.2687H52.386C52.6084 37.2687 52.7773 37.331 52.9018 37.4643C53.0263 37.5977 53.0797 37.7667 53.0797 37.989V41.715C53.0797 41.8839 53.0174 42.044 52.9018 42.2041C52.7773 42.3552 52.6084 42.4353 52.3772 42.4353H42.6131V46.1701H50.1451L50.1629 46.1613ZM7.48753 8.09223C7.48753 7.91437 7.54089 7.75431 7.65649 7.62981C7.7632 7.49642 7.93216 7.43418 8.15447 7.43418H13.0809C13.2232 7.43418 13.3655 7.46975 13.5167 7.54089C13.6679 7.61203 13.8012 7.72763 13.908 7.90548C15.1796 9.95966 16.4512 11.9961 17.7051 13.988C18.9589 15.9888 20.2306 18.0163 21.52 20.0705V8.0033C21.5644 7.82545 21.6445 7.68317 21.7601 7.58535C21.8846 7.48753 22.018 7.43418 22.178 7.43418H26.4731C26.6866 7.43418 26.8644 7.49643 26.9978 7.61203C27.1401 7.72763 27.2112 7.8877 27.2112 8.10112V29.2209C27.2112 29.4255 27.149 29.5677 27.0334 29.6656C26.9089 29.7634 26.7488 29.8078 26.5354 29.8078H21.7334C21.6 29.8078 21.4844 29.7634 21.3866 29.6745C21.2888 29.5855 21.1821 29.461 21.0665 29.3099C19.7326 27.1045 18.4076 24.9169 17.1093 22.7561C15.8021 20.5952 14.4771 18.4165 13.1343 16.2022V29.1409C13.1343 29.3632 13.0809 29.5322 12.9831 29.6389C12.8853 29.7456 12.6986 29.8078 12.4407 29.8078H8.16337C7.93216 29.8078 7.7632 29.7456 7.65649 29.6211C7.54978 29.4966 7.49642 29.3454 7.49642 29.1587V8.09223H7.48753ZM6.52714 58.9665L8.67913 37.9268C8.69692 37.7489 8.76806 37.5888 8.89256 37.4643C9.01705 37.331 9.18601 37.2687 9.40832 37.2687H14.6194C14.9928 37.2687 15.2329 37.4554 15.3397 37.8378L19.4391 51.5146L23.5653 37.8378C23.7076 37.4554 23.9654 37.2687 24.33 37.2687H29.4788C29.6567 37.2687 29.8256 37.3309 29.9679 37.4554C30.1102 37.5799 30.1991 37.74 30.2169 37.9268C30.5726 41.4571 30.9283 44.9697 31.2929 48.4466C31.6575 51.9236 32.0221 55.4362 32.3689 58.9665V59.0377C32.3689 59.429 32.1466 59.6246 31.7109 59.6246H27.4513C26.9889 59.6246 26.7488 59.4023 26.731 58.9665L25.4238 47.3262L22.0358 59.0466C22.018 59.1444 21.9468 59.2689 21.8134 59.4112C21.6889 59.5534 21.5644 59.6246 21.4488 59.6246H17.4828C17.3583 59.6246 17.2338 59.5534 17.1004 59.4201C16.967 59.2867 16.8959 59.1622 16.8781 59.0555L13.49 47.3706L12.1828 58.9843C12.165 59.429 11.916 59.6424 11.4447 59.6424H7.18518C6.74945 59.6424 6.53603 59.4201 6.53603 58.9843L6.52714 58.9665ZM20.1416 76.9295C20.3373 76.9295 20.4973 76.9829 20.6218 77.0896C20.7552 77.1963 20.8175 77.3652 20.8175 77.5964V81.1979C20.8175 81.3669 20.7552 81.5358 20.6396 81.687C20.524 81.8471 20.364 81.9182 20.1683 81.9182H13.3744V88.8188C13.3744 89.2546 13.1432 89.468 12.6808 89.468H8.08333C7.71874 89.4146 7.54089 89.2101 7.54089 88.8366V67.7968C7.54089 67.5834 7.60314 67.4234 7.70985 67.2989C7.82545 67.1744 7.96773 67.1121 8.1278 67.1032H22.5426C22.7738 67.1032 22.9428 67.1655 23.0584 67.2989C23.174 67.4323 23.2274 67.6012 23.2274 67.8235V71.5495C23.2274 71.7185 23.1651 71.8785 23.0495 72.0386C22.925 72.1898 22.7561 72.2698 22.5248 72.2698H13.3655V76.9384H20.1239L20.1416 76.9295ZM44.8807 89.2724C44.774 89.3969 44.5784 89.4591 44.3116 89.4591H39.9898C39.7586 89.4591 39.5808 89.4146 39.4563 89.3346C39.3318 89.2457 39.234 89.1034 39.1628 88.9078C38.9583 88.392 38.7627 87.8851 38.5759 87.3783C38.3803 86.8714 38.1935 86.3645 38.0068 85.8487H30.0124C29.8167 86.3645 29.63 86.8714 29.4344 87.3783C29.2387 87.8851 29.0431 88.392 28.8563 88.9078C28.723 89.2813 28.4651 89.468 28.0916 89.468H23.6453C23.4497 89.468 23.2985 89.4146 23.174 89.3168C23.0495 89.219 23.0228 89.0678 23.1029 88.8633L31.284 67.6901C31.2929 67.6279 31.3285 67.5656 31.3818 67.4945C31.4352 67.4234 31.5063 67.3611 31.5864 67.2989C31.6664 67.2366 31.7553 67.1921 31.8442 67.1566C31.9332 67.121 32.0221 67.1032 32.1021 67.1032H35.9615C36.1305 67.1032 36.2816 67.1566 36.3972 67.2633C36.5217 67.37 36.6107 67.4589 36.664 67.539L37.0375 68.4015L44.943 88.7922C45.023 88.9967 45.0052 89.1568 44.8985 89.2813L44.8807 89.2724ZM64.0709 87.4316C63.9908 87.5828 63.8663 87.7073 63.6974 87.8051C62.7548 88.4365 61.741 88.9256 60.6472 89.2724C59.5534 89.6192 58.4063 89.797 57.2058 89.797C56.1387 89.797 55.1161 89.6636 54.1379 89.388C53.1597 89.1212 52.2438 88.7299 51.3901 88.2319C50.5364 87.734 49.7627 87.1293 49.0602 86.4356C48.3577 85.742 47.7619 84.9684 47.2639 84.1147C46.7571 83.2699 46.3747 82.354 46.1079 81.3758C45.8411 80.3976 45.6988 79.375 45.6988 78.3078C45.6988 77.2407 45.8322 76.2181 46.1079 75.2399C46.3747 74.2617 46.766 73.3458 47.2639 72.4832C47.7619 71.6295 48.3666 70.847 49.0602 70.1445C49.7538 69.442 50.5364 68.8373 51.3901 68.3482C52.2438 67.8502 53.1597 67.4678 54.1379 67.1921C55.1161 66.9165 56.1387 66.7742 57.2058 66.7742C58.4063 66.7742 59.5446 66.9432 60.6206 67.2811C61.6877 67.619 62.6925 68.0992 63.644 68.7306C63.813 68.8284 63.9375 68.9618 64.0175 69.1218C64.0975 69.2819 64.0798 69.4775 63.973 69.691L61.4298 73.3013C61.3231 73.4703 61.1986 73.5681 61.0741 73.5948C60.9496 73.6215 60.7984 73.577 60.6117 73.4703C60.1226 73.0968 59.5801 72.8122 58.9843 72.6166C58.3885 72.4121 57.766 72.3143 57.0991 72.3143C56.2721 72.3143 55.5162 72.4654 54.8226 72.7767C54.129 73.0879 53.5332 73.5148 53.0263 74.0572C52.5194 74.5996 52.1282 75.231 51.8525 75.9513C51.5768 76.6716 51.4345 77.4453 51.4345 78.2723C51.4345 79.0993 51.5768 79.864 51.8525 80.5843C52.1282 81.3046 52.5283 81.9271 53.0263 82.4696C53.5243 83.012 54.129 83.43 54.8226 83.7412C55.5162 84.0524 56.2721 84.2036 57.0991 84.2036C57.7571 84.2036 58.3974 84.0969 58.9932 83.8924C59.5979 83.6878 60.1404 83.3944 60.6383 83.0298C60.8162 82.9231 60.9674 82.8786 61.0919 82.8964C61.2164 82.9142 61.332 83.0031 61.4565 83.1632L64.0353 86.8714C64.142 87.0937 64.1598 87.2804 64.0798 87.4316H64.0709ZM83.9102 71.4961C83.9102 71.674 83.8479 71.8519 83.7234 72.0119C83.5989 72.1809 83.4211 72.2609 83.1899 72.2609H77.9966V88.7566C77.9966 88.9344 77.9344 89.1034 77.801 89.2457C77.6676 89.388 77.4986 89.468 77.2941 89.468H72.8745C72.7055 89.468 72.5455 89.3969 72.3943 89.2635C72.2431 89.1301 72.172 88.9611 72.172 88.7566V72.2609H66.9876C66.7831 72.2609 66.623 72.1987 66.4808 72.0653C66.3474 71.9319 66.2762 71.7451 66.2762 71.4961V67.7524C66.2762 67.5567 66.3474 67.3967 66.4808 67.2722C66.6141 67.1477 66.7831 67.0943 66.9876 67.0943H83.1899C83.3677 67.0943 83.5278 67.1477 83.6701 67.2633C83.8123 67.37 83.8924 67.539 83.9102 67.7613V71.505V71.4961ZM107.938 81.3669C107.662 82.3451 107.271 83.261 106.773 84.1058C106.275 84.9506 105.679 85.7242 104.977 86.4268C104.274 87.1293 103.492 87.7251 102.638 88.223C101.784 88.7299 100.868 89.1123 99.8812 89.3791C98.8941 89.6459 97.8804 89.7881 96.8221 89.7881C95.7639 89.7881 94.7324 89.6547 93.7542 89.3791C92.776 89.1123 91.8601 88.721 91.0064 88.223C90.1527 87.7251 89.3791 87.1204 88.6766 86.4268C87.9741 85.7331 87.3783 84.9595 86.8714 84.1058C86.3734 83.261 85.9821 82.3451 85.7153 81.3669C85.4397 80.3887 85.3063 79.3661 85.3063 78.299C85.3063 77.2318 85.4397 76.2092 85.7153 75.231C85.9821 74.2528 86.3734 73.3369 86.8714 72.4743C87.3783 71.6206 87.9741 70.8381 88.6766 70.1356C89.3791 69.4331 90.1527 68.8284 91.0064 68.3393C91.8601 67.8413 92.776 67.4589 93.7542 67.1833C94.7324 66.9076 95.755 66.7653 96.8221 66.7653C97.8893 66.7653 98.8941 66.8987 99.8812 67.1833C100.868 67.4589 101.784 67.8413 102.638 68.3393C103.492 68.8373 104.274 69.4331 104.977 70.1356C105.679 70.8381 106.284 71.6206 106.773 72.4743C107.271 73.3369 107.653 74.2528 107.938 75.231C108.214 76.2092 108.356 77.2318 108.356 78.299C108.356 79.3661 108.222 80.3887 107.938 81.3669ZM130 89.3346C129.894 89.4235 129.751 89.4591 129.573 89.4591H124.407C124.238 89.4591 124.087 89.4058 123.944 89.3079C123.811 89.2101 123.722 89.0767 123.678 88.8989L120.014 82.016H117.577V88.81C117.577 89.2457 117.346 89.4591 116.884 89.4591H112.411C112.206 89.4591 112.046 89.4058 111.931 89.299C111.806 89.1923 111.753 89.0323 111.753 88.81V67.788C111.753 67.5745 111.806 67.4056 111.922 67.2811C112.037 67.1566 112.197 67.0943 112.42 67.0943H122.148C123.18 67.0943 124.149 67.29 125.056 67.6723C125.963 68.0636 126.746 68.5883 127.421 69.2463C128.097 69.9044 128.622 70.6869 129.013 71.5762C129.404 72.4654 129.591 73.4081 129.591 74.4129C129.591 75.0976 129.502 75.7468 129.316 76.3604C129.129 76.974 128.871 77.552 128.542 78.0944C128.213 78.628 127.813 79.1171 127.359 79.5528C126.906 79.9885 126.399 80.362 125.856 80.6733L129.725 87.9652C129.796 88.1074 129.885 88.2675 129.991 88.4632C130.098 88.6588 130.16 88.8188 130.16 88.9611C130.16 89.1212 130.107 89.2457 130 89.3346ZM150.836 67.699L143.695 80.3353V88.7566C143.695 89.2279 143.464 89.468 143.001 89.468H138.493C138.288 89.468 138.137 89.4058 138.03 89.2813C137.924 89.1568 137.861 88.9789 137.861 88.7655V80.3176L130.738 67.7079C130.605 67.5745 130.543 67.45 130.543 67.3344C130.543 67.2722 130.561 67.2188 130.605 67.1744C130.649 67.1299 130.703 67.1032 130.774 67.1032H136.572C136.643 67.121 136.696 67.1388 136.741 67.1388C136.785 67.1388 136.821 67.1566 136.865 67.1833C136.901 67.2099 136.945 67.2455 136.99 67.3078C137.034 67.3611 137.088 67.45 137.159 67.5745L140.823 75.3644L144.46 67.5745C144.522 67.45 144.566 67.37 144.611 67.3078C144.646 67.2544 144.691 67.2099 144.735 67.1833C144.78 67.1566 144.815 67.1388 144.86 67.1388C144.904 67.1388 144.958 67.121 145.02 67.1032H150.818C150.889 67.1032 150.942 67.1299 150.987 67.1744C151.031 67.2188 151.058 67.2722 151.058 67.3344C151.058 67.4411 150.987 67.5745 150.844 67.7079L150.836 67.699Z" fill="#003039"></path>
  </g>
  <defs>
    <clipPath id="clip0_5_2029">
      <rect width="157.469" height="97" fill="white"></rect>
    </clipPath>
  </defs>
</svg>
