<?xml version="1.0" encoding="UTF-8"?>
<svg xmlns="http://www.w3.org/2000/svg" width="120" height="120" viewBox="0 0 120 120" fill="none">
  <path d="M90.45 76.22H57.75C57.4739 76.22 57.25 76.4438 57.25 76.72V81.04C57.25 81.3161 57.4739 81.54 57.75 81.54H90.45C90.7261 81.54 90.95 81.3161 90.95 81.04V76.72C90.95 76.4438 90.7261 76.22 90.45 76.22Z" fill="#A8CD40"></path>
  <path d="M90.45 85.62H57.75C57.4739 85.62 57.25 85.8439 57.25 86.12V90.44C57.25 90.7161 57.4739 90.94 57.75 90.94H90.45C90.7261 90.94 90.95 90.7161 90.95 90.44V86.12C90.95 85.8439 90.7261 85.62 90.45 85.62Z" fill="#A8CD40"></path>
  <path d="M90.45 66.83H57.75C57.4739 66.83 57.25 67.0539 57.25 67.33V71.65C57.25 71.9262 57.4739 72.15 57.75 72.15H90.45C90.7261 72.15 90.95 71.9262 90.95 71.65V67.33C90.95 67.0539 90.7261 66.83 90.45 66.83Z" fill="#A8CD40"></path>
  <path d="M81.04 29.07H76.72C76.4438 29.07 76.22 29.2939 76.22 29.57V62.27C76.22 62.5462 76.4438 62.77 76.72 62.77H81.04C81.3161 62.77 81.54 62.5462 81.54 62.27V29.57C81.54 29.2939 81.3161 29.07 81.04 29.07Z" fill="#A8CD40"></path>
  <path d="M90.4401 29.07H86.1201C85.844 29.07 85.6201 29.2939 85.6201 29.57V62.27C85.6201 62.5462 85.844 62.77 86.1201 62.77H90.4401C90.7163 62.77 90.9401 62.5462 90.9401 62.27V29.57C90.9401 29.2939 90.7163 29.07 90.4401 29.07Z" fill="#A8CD40"></path>
  <path d="M71.6501 29.07H67.3301C67.0539 29.07 66.8301 29.2939 66.8301 29.57V62.27C66.8301 62.5462 67.0539 62.77 67.3301 62.77H71.6501C71.9262 62.77 72.1501 62.5462 72.1501 62.27V29.57C72.1501 29.2939 71.9262 29.07 71.6501 29.07Z" fill="#A8CD40"></path>
  <path d="M62.25 38.46H29.55C29.2739 38.46 29.05 38.6839 29.05 38.96V43.28C29.05 43.5562 29.2739 43.78 29.55 43.78H62.25C62.5262 43.78 62.75 43.5562 62.75 43.28V38.96C62.75 38.6839 62.5262 38.46 62.25 38.46Z" fill="#A8CD40"></path>
  <path d="M62.25 29.07H29.55C29.2739 29.07 29.05 29.2939 29.05 29.57V33.89C29.05 34.1661 29.2739 34.39 29.55 34.39H62.25C62.5262 34.39 62.75 34.1661 62.75 33.89V29.57C62.75 29.2939 62.5262 29.07 62.25 29.07Z" fill="#A8CD40"></path>
  <path d="M62.25 47.86H29.55C29.2739 47.86 29.05 48.0838 29.05 48.36V52.68C29.05 52.9561 29.2739 53.18 29.55 53.18H62.25C62.5262 53.18 62.75 52.9561 62.75 52.68V48.36C62.75 48.0838 62.5262 47.86 62.25 47.86Z" fill="#A8CD40"></path>
  <path d="M43.28 57.23H38.96C38.6838 57.23 38.46 57.4538 38.46 57.73V90.43C38.46 90.7061 38.6838 90.93 38.96 90.93H43.28C43.5561 90.93 43.78 90.7061 43.78 90.43V57.73C43.78 57.4538 43.5561 57.23 43.28 57.23Z" fill="#A8CD40"></path>
  <path d="M33.8898 57.23H29.5698C29.2937 57.23 29.0698 57.4538 29.0698 57.73V90.43C29.0698 90.7061 29.2937 90.93 29.5698 90.93H33.8898C34.166 90.93 34.3898 90.7061 34.3898 90.43V57.73C34.3898 57.4538 34.166 57.23 33.8898 57.23Z" fill="#A8CD40"></path>
  <path d="M52.6799 57.23H48.3599C48.0837 57.23 47.8599 57.4538 47.8599 57.73V90.43C47.8599 90.7061 48.0837 90.93 48.3599 90.93H52.6799C52.956 90.93 53.1799 90.7061 53.1799 90.43V57.73C53.1799 57.4538 52.956 57.23 52.6799 57.23Z" fill="#A8CD40"></path>
</svg>
