<?xml version="1.0" encoding="UTF-8"?>
<svg xmlns="http://www.w3.org/2000/svg" width="100" height="100" viewBox="0 0 100 100" fill="none">
  <path d="M70.5539 51.2332C70.4039 51.0432 70.4138 50.7832 70.5638 50.6032C81.3438 38.0732 78.8138 23.3232 70.3538 14.8332C66.0738 10.5332 60.5338 8.10316 54.7538 8.00316C48.3138 7.89316 42.0038 10.6532 36.5438 15.9532C26.2038 25.6332 20.1738 37.4832 20.0038 48.4732C19.8638 57.6632 23.5439 66.0632 30.9239 73.4132C41.1539 84.0732 50.2038 90.2432 57.8138 91.7532C59.1338 92.0132 60.4338 92.1432 61.6838 92.1332C65.7439 92.0932 69.3239 90.5032 72.6239 87.2832C83.7839 76.3732 78.7539 61.4932 70.5539 51.2532V51.2332ZM68.9238 83.4732C66.6138 85.7232 64.3038 86.7932 61.6338 86.8132C60.7438 86.8132 59.8039 86.7332 58.8439 86.5332C52.3139 85.2432 44.2139 79.5832 34.7038 69.6832C28.3438 63.3532 25.1838 56.2332 25.3038 48.5432C25.4538 38.9832 30.8738 28.5132 40.2038 19.7832C44.9138 15.2132 51.3939 12.3532 57.7339 13.6032C60.7939 14.2132 63.8238 15.7732 66.6038 18.5632C73.6238 25.6132 75.3838 38.2032 65.1738 48.6332C64.0238 49.8132 63.9739 51.6932 65.0539 52.9132C66.2339 54.2532 70.2639 59.0832 72.4439 65.1332C75.0739 72.4432 73.8839 78.6032 68.9139 83.4632L68.9238 83.4732Z" fill="#4BC78E"></path>
  <path d="M61.8274 42.6786C70.7785 35.2504 67.0671 21.6452 56.945 19.623C56.1015 19.4528 55.2183 19.3627 54.2854 19.3727C50.1274 19.4328 41.3252 22.1858 30.7763 43.95C28.2557 49.1458 30.9649 55.6431 36.6015 56.7643C39.1122 57.2649 42.1984 56.7042 45.6717 54.4818C51.6061 50.6875 60.8152 43.4395 61.8274 42.6786ZM42.8633 50.0068C40.8687 51.2882 39.003 51.8388 37.6336 51.5585C36.4526 51.3182 35.8275 50.5073 35.5099 49.8666C34.9641 48.7554 34.9641 47.4139 35.5099 46.2826C45.116 26.4406 52.3206 24.7186 54.3351 24.6786C54.8809 24.6786 55.4167 24.7286 55.9228 24.8288C58.6419 25.3694 60.6862 27.3916 61.3908 30.2348C62.1549 33.2882 61.0931 36.3816 58.5526 38.524C58.3938 38.6441 58.1557 38.8343 57.8381 39.0746C55.3572 40.9968 47.8251 46.8332 42.8534 50.0068H42.8633Z" fill="#4BC78E"></path>
  <path d="M63.3457 59.5074C60.0709 56.0235 54.8412 54.8322 50.3358 56.5441C46.2175 58.1058 43.6572 61.6498 43.4786 66.0146C43.161 71.2905 46.2473 74.3138 49.7106 77.1971C51.7053 78.8589 54.0076 79.9201 56.3198 80.3806C60.3984 81.1915 64.5068 80.1403 66.9579 77.2271C71.1656 72.2215 67.2854 63.692 63.3457 59.5074ZM62.9488 73.7933C60.9641 76.1559 56.3396 75.8355 53.0549 73.1025C49.5519 70.1893 48.5793 68.6676 48.7282 66.3149V66.2549C48.8572 63.1114 51.1893 61.89 52.1916 61.5096C53.2931 61.0891 54.6526 60.939 56.0122 61.2093C57.2625 61.4595 58.5129 62.0702 59.5351 63.1514C62.4129 66.2048 64.5961 71.8311 62.9488 73.7933Z" fill="#4BC78E"></path>
</svg>
