<?xml version="1.0" encoding="UTF-8"?>
<svg xmlns="http://www.w3.org/2000/svg" width="120" height="120" viewBox="0 0 120 120" fill="none">
  <path d="M55.39 95.73C48.3 98.57 41.52 97.54 36.14 92.76L34.12 90.96C33.88 90.75 33.9 90.37 34.16 90.18L36.36 88.6C46.09 81.64 53.91 73.2 59.61 63.51C61.75 59.88 63.61 56.05 65.13 52.13C68.7 42.94 70.51 33.22 70.5 23.22C70.5 22.95 70.72 22.73 70.99 22.72L75.32 22.69C75.6 22.69 75.83 22.92 75.83 23.19C75.83 33.86 73.91 44.24 70.1 54.05C68.47 58.24 66.49 62.33 64.21 66.2C58.86 75.29 51.76 83.35 43.09 90.19C42.8 90.42 42.84 90.88 43.18 91.03C46.58 92.51 50.43 92.24 54.69 90.2C58.45 88.4 60.9 84.51 60.93 80.29L60.95 77.44C60.95 77.11 61.27 76.87 61.59 76.96L64.33 77.74C67.1 78.53 70.05 77.61 71.84 75.38C73.67 73.1 73.89 69.87 72.4 67.32L70.69 64.41C70.51 64.1 70.71 63.7 71.07 63.66L74.43 63.32C77.66 63 80.28 60.62 80.67 57.66C80.96 55.48 79.97 53.18 78.12 51.68C77.91 51.51 77.86 51.22 78.01 51L80.5 47.46C80.66 47.23 80.99 47.17 81.22 47.34C84.7 50.01 86.5 54.18 85.94 58.36C85.37 62.6 82.38 66.17 78.38 67.77C78.35 67.78 78.32 67.79 78.3 67.8C79.26 71.54 78.46 75.61 75.99 78.69C73.61 81.66 70.05 83.32 66.35 83.33C66.12 83.33 65.92 83.49 65.87 83.71C64.8 88.57 61.54 92.8 56.99 94.97C56.46 95.23 55.93 95.46 55.4 95.67L55.39 95.73Z" fill="#A8CD40"></path>
</svg>
