<?xml version="1.0" encoding="UTF-8"?>
<svg xmlns="http://www.w3.org/2000/svg" width="100" height="100" viewBox="0 0 100 100" fill="none">
  <path d="M98.6501 31.96L96.6601 28.42C96.5201 28.18 96.2201 28.09 95.9801 28.23L92.1001 30.41C91.7501 30.61 91.3301 30.33 91.3601 29.94L91.7201 25.26C91.7401 24.98 91.5401 24.74 91.2601 24.72L87.2101 24.41C86.9301 24.39 86.6901 24.59 86.6701 24.87L86.0501 32.86C85.9701 33.08 85.7501 33.22 85.5101 33.18C80.5001 32.41 75.4501 35.18 73.5301 39.97C69.5501 49.15 60.3601 54.75 49.5501 54.59C38.8101 54.41 29.8301 48.56 26.0601 39.33C24.3901 34.63 19.3301 31.56 14.4201 32.17C14.1401 32.2 13.9001 32.02 13.8601 31.75L13.3301 24.85C13.3101 24.57 13.0701 24.37 12.7901 24.39L8.74006 24.7C8.46006 24.72 8.26006 24.96 8.28006 25.24L8.64006 29.92C8.67006 30.32 8.24006 30.59 7.90006 30.39L4.02006 28.21C3.78006 28.07 3.47006 28.16 3.34006 28.4L1.35006 31.94C1.21006 32.18 1.30006 32.49 1.54006 32.62L6.80006 35.57C7.08006 35.72 7.14006 36.08 6.94006 36.33C3.73006 40.33 3.99006 45.76 6.70006 50.04C14.2101 65.8 30.7801 75.58 49.9901 75.58C68.7001 75.56 85.1001 66.14 92.7901 50.99C95.6601 46.56 95.7401 40.83 92.2201 36.84C92.0001 36.6 92.0601 36.22 92.3401 36.06L98.4701 32.61C98.7101 32.47 98.8001 32.17 98.6601 31.93L98.6501 31.96ZM89.5601 46.28C83.0301 61.19 68.0001 70.59 49.9101 70.6C32.7101 70.6 17.8701 61.9 11.1801 47.86L9.94006 45.39C7.93006 40.53 13.3401 35.37 18.0901 37.62C19.5801 38.27 20.7401 39.48 21.3301 41.01C25.6301 52.31 36.1401 59.03 47.8801 59.53C60.6301 60.41 73.1901 53.96 78.1201 41.93C81.1201 34.59 92.2001 38.76 89.5501 46.29L89.5601 46.28Z" fill="#008F49"></path>
</svg>
